<?xml version="1.0" encoding="UTF-8" standalone="no"?>
<!DOCTYPE svg PUBLIC "-//W3C//DTD SVG 1.1//EN" "http://www.w3.org/Graphics/SVG/1.1/DTD/svg11.dtd">
<!-- Created with Vectornator (http://vectornator.io/) -->
<svg height="100%" stroke-miterlimit="10" style="fill-rule:nonzero;clip-rule:evenodd;stroke-linecap:round;stroke-linejoin:round;" version="1.1" viewBox="0 0 75.5 24.435" width="100%" xml:space="preserve" xmlns="http://www.w3.org/2000/svg" xmlns:xlink="http://www.w3.org/1999/xlink">
<defs/>
<clipPath id="ArtboardFrame">
<rect height="24.435" width="75.5" x="0" y="0"/>
</clipPath>
<g clip-path="url(#ArtboardFrame)" id="Untitled">
<path d="M4.023 7.64162C3.059 7.64162 2.086 7.90362 1.312 8.48562C0.539 9.06762 1.62971e-16 10.0126 1.62971e-16 11.1656L1.62971e-16 18.4666C-0.027 18.8766 0.297 19.2236 0.707 19.2236C1.117 19.2236 1.445 18.8766 1.418 18.4666L1.418 11.1656C1.418 10.4276 1.695 9.96962 2.164 9.61862C2.633 9.26662 3.32 9.06762 4.023 9.06762C4.973 9.06762 4.973 7.64162 4.023 7.64162Z" fill="#ffffff" fill-rule="evenodd" opacity="1" stroke="none"/>
<path d="M7.406 7.63462C7.016 7.63762 6.703 7.96262 6.711 8.35262L6.711 18.4666C6.684 18.8766 7.008 19.2236 7.418 19.2236C7.828 19.2236 8.152 18.8766 8.129 18.4666L8.129 8.35262C8.133 7.95462 7.809 7.62662 7.406 7.63462Z" fill="#ffffff" fill-rule="evenodd" opacity="1" stroke="none"/>
<path d="M11.359 7.63462C10.969 7.63762 10.656 7.96262 10.664 8.35262L10.664 18.4666C10.664 19.4156 12.086 19.4156 12.086 18.4666L12.086 8.35262C12.09 7.95062 11.762 7.62262 11.359 7.63462Z" fill="#ffffff" fill-rule="evenodd" opacity="1" stroke="none"/>
<path d="M15.031 7.64162C13.867 7.64162 12.812 8.23962 12.02 9.04062C11.227 9.83762 10.664 10.8686 10.664 11.9586C10.664 12.9036 12.086 12.9036 12.086 11.9586C12.086 11.4036 12.441 10.6306 13.027 10.0406C13.609 9.45062 14.379 9.06762 15.031 9.06762C15.902 9.06762 16.391 9.34162 16.719 9.71962C17.047 10.0986 17.211 10.6306 17.211 11.1656L17.211 18.4666C17.188 18.8766 17.512 19.2236 17.922 19.2236C18.332 19.2236 18.656 18.8766 18.629 18.4666L18.629 11.1656C18.629 10.3446 18.391 9.47762 17.793 8.79062C17.195 8.10262 16.234 7.64162 15.031 7.64162Z" fill="#ffffff" fill-rule="evenodd" opacity="1" stroke="none"/>
<path d="M32.398 2.66163C32.008 2.66962 31.695 2.98962 31.699 3.38062L31.699 18.4666C31.699 19.4156 33.125 19.4156 33.125 18.4666L33.125 3.38062C33.129 2.97763 32.801 2.65363 32.398 2.66163Z" fill="#ffffff" fill-rule="evenodd" opacity="1" stroke="none"/>
<path d="M36.074 7.64162C34.91 7.64162 33.852 8.23962 33.059 9.04062C32.266 9.83762 31.699 10.8686 31.699 11.9586C31.699 12.9036 33.125 12.9036 33.125 11.9586C33.125 11.4036 33.48 10.6306 34.066 10.0406C34.648 9.45062 35.422 9.06762 36.074 9.06762C36.945 9.06762 37.43 9.34162 37.758 9.71962C38.086 10.0986 38.25 10.6306 38.25 11.1656L38.25 18.4666C38.223 18.8766 38.551 19.2236 38.961 19.2236C39.371 19.2236 39.695 18.8766 39.668 18.4666L39.668 11.1656C39.668 10.3446 39.43 9.47762 38.832 8.79062C38.234 8.10262 37.277 7.64162 36.074 7.64162Z" fill="#ffffff" fill-rule="evenodd" opacity="1" stroke="none"/>
<path d="M25.004 7.64162C22.891 7.64162 21.164 9.36862 21.164 11.4816L21.164 15.3416C21.164 17.4506 22.891 19.1776 25.004 19.1776L25.336 19.1776C27.445 19.1776 29.164 17.4506 29.164 15.3416L29.164 11.4816C29.164 9.36862 27.445 7.64162 25.336 7.64162L25.004 7.64162ZM25.004 9.06762L25.336 9.06762C26.684 9.06762 27.75 10.1306 27.75 11.4816L27.75 15.3416C27.75 16.6886 26.684 17.7596 25.336 17.7596L25.004 17.7596C23.652 17.7596 22.59 16.6886 22.59 15.3416L22.59 11.4816C22.59 10.1306 23.652 9.06762 25.004 9.06762Z" fill="#ffffff" fill-rule="evenodd" opacity="1" stroke="none"/>
<path d="M43.668 3.23951L43.668 15.6535C43.668 17.5445 45.316 18.4665 46.984 18.4665" fill="none" fill-rule="evenodd" opacity="1" stroke="#ffffff" stroke-linecap="round" stroke-linejoin="round" stroke-width="0.751181"/>
<path d="M46.52 8.35251L41.898 8.35251" fill="none" fill-rule="evenodd" opacity="1" stroke="#ffffff" stroke-linecap="round" stroke-linejoin="round" stroke-width="0.75"/>
<path d="M49.734 7.97762C49.543 7.99762 49.398 8.16162 49.402 8.35262L49.402 15.6536C49.402 16.4076 49.625 17.1966 50.16 17.8136C50.695 18.4306 51.543 18.8446 52.668 18.8446C53.711 18.8446 54.703 18.2986 55.445 17.5486C56.191 16.7986 56.703 15.8296 56.703 14.8686C56.703 14.3686 55.949 14.3686 55.949 14.8686C55.949 15.5486 55.543 16.3766 54.91 17.0166C54.277 17.6576 53.441 18.0916 52.668 18.0916C51.719 18.0916 51.121 17.7746 50.73 17.3216C50.34 16.8686 50.152 16.2596 50.152 15.6536L50.152 8.35262C50.156 8.12662 49.957 7.95062 49.734 7.97762Z" fill="#ffffff" fill-rule="evenodd" opacity="1" stroke="none"/>
<path d="M56.281 7.97762C56.094 7.99762 55.949 8.16162 55.949 8.35262L55.949 19.9386C55.949 20.8216 55.777 21.6106 55.348 22.1536C54.918 22.7006 54.23 23.0636 53.004 23.0636C52.18 23.0636 51.516 22.8026 51.055 22.3526C50.594 21.9076 50.32 21.2706 50.32 20.4626C50.344 20.2396 50.168 20.0486 49.945 20.0486C49.723 20.0486 49.551 20.2396 49.574 20.4626C49.574 21.4426 49.918 22.2986 50.531 22.8916C51.145 23.4856 52.016 23.8136 53.004 23.8136C54.387 23.8136 55.359 23.3566 55.941 22.6186C56.52 21.8806 56.703 20.9196 56.703 19.9386L56.703 8.35262C56.707 8.12662 56.508 7.95062 56.281 7.97762Z" fill="#ffffff" fill-rule="evenodd" opacity="1" stroke="none"/>
<path d="M62.238 7.98162C60.309 7.98162 58.742 9.54862 58.742 11.4816L58.742 15.3416C58.742 17.2706 60.309 18.8446 62.238 18.8446L62.57 18.8446C64.504 18.8446 66.07 17.2706 66.07 15.3416L66.07 11.4816C66.07 9.54862 64.504 7.98162 62.57 7.98162L62.238 7.98162ZM62.238 8.72762L62.57 8.72762C64.102 8.72762 65.324 9.95062 65.324 11.4816L65.324 15.3416C65.324 16.8686 64.102 18.0916 62.57 18.0916L62.238 18.0916C60.711 18.0916 59.492 16.8686 59.492 15.3416L59.492 11.4816C59.492 9.95062 60.711 8.72762 62.238 8.72762Z" fill="#ffffff" fill-rule="evenodd" opacity="1" stroke="none"/>
<path d="M59.074 13.0636C58.879 13.0876 58.734 13.2516 58.742 13.4466L58.742 24.0326C58.742 24.5326 59.492 24.5326 59.492 24.0326L59.492 13.4466C59.5 13.2166 59.301 13.0366 59.074 13.0636Z" fill="#ffffff" fill-rule="evenodd" opacity="1" stroke="none"/>
<path d="M71.613 7.98162C69.68 7.98162 68.109 9.54862 68.109 11.4816L68.109 15.3416C68.109 17.2706 69.68 18.8446 71.613 18.8446L71.945 18.8446C73.879 18.8446 75.445 17.2706 75.445 15.3416C75.445 14.8376 74.691 14.8376 74.691 15.3416C74.691 16.8686 73.477 18.0916 71.945 18.0916L71.613 18.0916C70.082 18.0916 68.863 16.8686 68.863 15.3416L68.863 13.6346L75.066 13.6346C75.277 13.6346 75.445 13.4666 75.445 13.2596L75.445 11.4816C75.445 9.54862 73.879 7.98162 71.945 7.98162L71.613 7.98162ZM71.613 8.72762L71.945 8.72762C73.477 8.72762 74.691 9.95062 74.691 11.4816L74.691 12.8806L68.863 12.8806L68.863 11.4816C68.863 9.95062 70.082 8.72762 71.613 8.72762Z" fill="#ffffff" fill-rule="evenodd" opacity="1" stroke="none"/>
</g>
</svg>
